<svg preserveAspectRatio="none" overflow="visible" style="display: block;" width="152" height="48" viewBox="0 0 152 48" fill="none" xmlns="http://www.w3.org/2000/svg">
<g id="image 583422 [Vectorized]" clip-path="url(#clip0_0_73)">
<path id="Vector" d="M11.2098 14.4648C11.87 14.1496 13.2058 13.0712 13.8917 12.5885C19.0724 8.94258 28.264 8.33662 31.7679 14.5798C33.8767 18.3371 33.5267 24.8926 32.3563 29.1652C33.2654 29.6984 36.2182 31.9791 37.006 32.7023C35.6042 32.1425 33.5723 31.6603 32.0631 31.2054C29.9789 30.5867 27.8905 29.9818 25.7983 29.3906C25.13 29.1964 22.2304 28.1976 21.6764 28.3513C20.9414 28.5553 19.1704 30.3767 18.791 31.071C18.7508 32.52 19.2983 35.4622 19.1136 36.5757L19.1041 36.6302C19.0638 36.8712 18.9458 37.0624 18.7801 37.2437C15.264 41.0932 11.2619 44.6256 7.75425 48.4666C7.96744 46.7171 8.06794 44.7515 8.31755 43.0469C8.74287 40.1438 8.59829 38.4629 8.35485 35.5873C8.26182 34.3716 8.20192 33.1536 8.17523 31.9347C9.90894 31.1931 11.8761 30.5837 13.6767 29.8255C13.0992 29.0428 12.2745 27.4056 11.7179 26.459C11.1478 26.9518 7.8598 29.2752 7.2832 29.5146C7.13184 31.4491 7.3944 33.5581 7.13357 35.4743C7.07541 35.9014 6.70826 36.9815 6.5615 37.4323C6.42491 36.9908 6.60001 34.371 6.61401 33.6806L7.0861 17.6563C7.11175 16.8844 7.08419 14.3439 7.17122 13.7772L7.30572 13.7391C8.3325 13.9898 10.3789 14.7346 11.2098 14.4648Z" fill="black"/>
<path id="Vector_2" d="M7.09949 0.115279C16.4352 -0.218364 30.204 0.807524 37.9448 6.58487C38.7092 7.15532 40.8166 8.9274 40.8714 9.89497C40.8879 10.1853 40.7595 10.9018 40.6318 11.1669C39.8835 12.7206 35.7293 23.332 35.1721 23.9867L35.074 23.9198C35.0041 23.608 35.059 20.9615 34.9709 20.1345C34.3921 16.5872 34.0875 13.9384 31.1444 11.1996C26.6012 6.97186 19.374 8.27796 14.2666 10.6811C13.1963 11.1848 11.5367 12.2881 10.4214 12.5814C10.4081 12.5815 10.3948 12.5817 10.3815 12.5818C10.2619 12.5948 10.1928 12.5657 10.0901 12.5223C9.91102 12.4467 9.39589 11.8851 9.30478 11.749C8.43866 10.4559 1.47783 1.67259 1.19457 0.829739L1.29447 0.676297C2.14145 0.23853 5.95681 0.159451 7.09949 0.115279Z" fill="#CD312E"/>
<path id="Vector_3" d="M81.4488 11.7746C91.2245 10.4498 95.9185 22.4425 90.1856 29.478C88.5911 31.4582 86.2549 32.7205 83.7049 32.9795C81.2488 33.3464 78.4919 32.6851 76.5244 31.1838C74.3317 29.5133 72.9004 27.0523 72.5452 24.3414C72.0796 20.6314 72.7459 17.1165 75.5915 14.4549C77.3956 12.7675 79.0292 12.0628 81.4488 11.7746ZM83.6571 31.9055C88.4607 31.3029 89.3918 25.2791 89.151 21.4453C88.8441 16.5605 87.1617 12.2572 81.4131 12.7983C79.5587 13.2266 78.4815 13.8997 77.4416 15.5369C75.5993 18.4379 75.5254 22.9806 76.2896 26.239C76.7183 28.0656 77.8285 30.253 79.5109 31.2496C80.8715 32.056 82.1269 32.0294 83.6571 31.9055Z" fill="black"/>
<path id="Vector_4" d="M49.6472 12.101C52.889 12.0524 60.4779 11.6426 63.0912 13.048C64.2662 13.6799 65.2096 14.6204 65.585 15.9102C66 17.3362 65.9 18.5909 65.1534 19.8997C64.2179 21.5399 62.5221 22.1152 60.7954 22.5991C61.6873 24.1268 65.8474 29.9038 67.0881 30.8723C67.8145 31.4393 70.0428 31.9971 70.2998 32.3307L70.2319 32.4559C69.4296 32.7285 65.8208 32.6415 64.8292 32.5839C63.9545 31.6596 63.2575 30.5797 62.5333 29.5346C60.9268 27.485 59.2583 25.1015 57.7297 22.987C56.895 23.0204 56.3687 23.0423 55.5305 22.9697C55.4726 25.082 55.3381 28.9715 55.7931 31.0057C56.0145 31.9955 57.5928 31.8901 58.5733 32.3242L58.5367 32.5071C57.7926 32.6905 50.0043 32.6973 49.6476 32.3987C49.8773 32.0307 51.1862 31.9723 51.6103 31.7725C51.8583 31.6556 52.1141 31.429 52.3216 31.2507C52.8043 29.5302 52.6094 24.7263 52.6122 22.6941C52.6148 20.7674 52.8325 15.0674 52.2888 13.4395C51.0832 12.3108 50.0591 12.9782 49.593 12.3851L49.6472 12.101ZM55.4803 13.556C55.5307 16.4164 55.4917 19.2685 55.5116 22.1259C56.8151 22.11 58.6074 22.0888 59.7639 21.4368C60.9656 20.8533 61.7271 20.2685 62.1796 18.9484C62.5597 17.8063 62.4703 16.5626 61.9307 15.4847C61.0871 13.8316 59.2885 13.0994 57.4728 13.3203C56.787 13.3873 56.1649 13.455 55.4803 13.556Z" fill="black"/>
<path id="Vector_5" d="M116.476 12.0618C117.28 12.0637 121.999 11.9836 122.431 12.2644C122.177 12.7184 120.191 12.8698 119.993 13.157C119.216 14.2829 119.405 16.5153 119.404 17.8319L119.412 22.9197C119.424 25.2213 119.365 27.5844 119.423 29.8833C119.492 32.5798 121.928 31.8008 122.53 32.3221L122.497 32.437C122.422 32.4767 122.346 32.5089 122.264 32.5336C121.629 32.7252 113.921 32.6591 113.654 32.5057C113.595 32.4721 113.592 32.3733 113.576 32.3096C113.96 31.7399 115.033 32.3245 116.181 31.2707C116.633 29.9907 116.466 21.8809 116.468 19.9474C116.479 18.4772 116.444 16.6612 116.575 15.222C115.731 16.9263 114.903 18.8293 114.104 20.5631L111.333 26.4926C110.394 28.5517 109.433 30.8398 108.306 32.8068C107.433 31.9057 105.789 27.8752 105.148 26.4903L99.8681 15.2567C100.134 18.6235 99.8698 22.5252 99.9637 25.9453C100.015 27.7846 99.8342 29.5402 100.247 31.3715C101.004 31.9116 102.662 32.0641 102.908 32.4469C102.542 32.7017 96.0792 32.7042 95.7218 32.4359L95.6984 32.2515C96.3669 31.743 97.219 32.534 98.4353 31.0356C98.7135 29.6445 98.8126 14.6674 98.4014 13.8273C97.9423 12.888 96.7278 12.8446 95.8462 12.5581C95.654 12.3319 95.701 12.4318 95.7184 12.0883C97.6354 12.0494 99.6273 12.0711 101.55 12.0669C102.022 13.2143 102.793 14.724 103.341 15.8933L107.218 24.1322C107.784 25.3359 108.583 26.9111 109.054 28.1248C109.751 26.9965 110.825 24.3646 111.449 23.0388L114.5 16.4314C115.179 14.9615 115.887 13.5733 116.476 12.0618Z" fill="black"/>
<path id="Vector_6" d="M135.479 11.533C135.695 11.6332 135.809 11.7763 135.902 11.9895C136.412 13.164 136.913 14.3446 137.418 15.5205L141.515 25.1776C142.165 26.7188 142.824 28.2535 143.513 29.7804C143.889 30.6166 144.5 31.4403 145.379 31.814C145.852 32.0153 146.299 31.8308 146.592 32.3411L146.544 32.4811C145.795 32.7599 140.873 32.539 139.777 32.6228C139.405 32.6513 138.718 32.609 138.42 32.313L138.448 32.1394C138.848 31.8272 140.07 32.0434 140.274 31.2953C140.681 29.8027 139.255 27.2102 138.702 25.8041C137.621 25.7355 136.266 25.7631 135.164 25.7576L130.53 25.7502C130.045 27.2103 128.431 29.6769 128.837 31.2128C129.059 32.055 130.7 31.6642 131.018 32.4048L130.885 32.5152C130.049 32.7251 125.799 32.6132 124.722 32.52C124.57 32.5068 124.586 32.4828 124.51 32.3725C124.731 31.842 125.886 31.7143 126.308 31.3467C126.71 30.9973 127.204 30.0219 127.43 29.5965C128.498 27.5824 134.713 12.2661 135.479 11.533ZM130.974 24.6765C132.117 24.6668 133.26 24.6638 134.403 24.6678C135.588 24.6648 137.06 24.6215 138.223 24.6779L134.679 16.3257L132.524 21.3185C132.061 22.3891 131.546 23.6733 130.974 24.6765Z" fill="black"/>
<path id="Vector_7" d="M75.9341 37.187C76.6244 37.4026 81.3141 37.296 82.4321 37.3286C82.4043 37.8571 82.4278 39.0005 82.2887 39.4495C81.7618 39.9801 79.2805 39.5016 78.4624 39.6302C78.132 39.6822 78.3441 40.5126 78.4815 40.5342C79.4839 40.6919 81.0072 40.3526 81.9731 40.656C82.6504 42.1515 76.8487 44.7275 75.7776 44.434C75.5863 44.1703 75.6176 44.285 75.6107 43.9685L75.7567 43.861C77.2017 43.5757 80.2082 42.5893 80.9506 41.2856L80.9089 41.1436C80.3142 41.1134 77.8807 41.0136 77.4904 41.3035C77.5886 41.7297 78.7449 41.9673 78.7919 42.5011C78.1963 42.6831 77.3817 42.13 76.8844 41.8335C76.3836 42.1519 76.1767 42.3779 75.5872 42.5176L75.4455 42.3598C75.6063 41.9658 77.7425 40.011 78.1781 39.6249L75.835 39.7013C75.8376 39.0744 75.8063 37.7308 75.9341 37.187ZM79.81 37.8677C79.417 37.8675 78.7823 37.8828 78.4128 37.8367C78.3754 38.264 78.3615 38.6636 78.3476 39.0915C78.8032 39.093 79.3396 39.0813 79.7874 39.1001C79.7987 38.6894 79.8056 38.2785 79.81 37.8677ZM80.3247 39.0945L81.7479 39.0867L81.7305 37.8966C81.3541 37.8806 80.6959 37.8696 80.3464 37.8171L80.3247 39.0945ZM76.4227 39.0931C76.8861 39.0905 77.3825 39.0753 77.8425 39.1179L77.8512 37.8603C77.3443 37.8723 76.9444 37.8915 76.441 37.8273L76.4227 39.0931Z" fill="black"/>
<path id="Vector_8" d="M117.383 38.3699C117.689 38.4732 117.623 38.4713 117.829 38.7374C118.422 39.5098 119.474 39.7702 120.368 39.9397C120.312 40.3201 120.306 40.7249 120.29 41.1105C120.11 41.1013 119.929 41.0949 119.749 41.0911C118.928 41.077 115.361 40.9755 114.913 41.4041L114.961 41.5648C115.304 41.7721 118.239 41.6872 118.856 41.686C118.804 42.2139 118.656 43.1015 118.823 43.5762C118.988 43.7491 119.002 43.7976 119.283 43.8003C120.126 43.8085 119.575 43.0298 119.944 42.6112C120.249 42.5989 120.145 42.5642 120.397 42.7181C120.766 44.5805 118.679 44.7861 118.138 44.0556C117.991 43.5554 118.104 42.7346 118.209 42.2245C117.546 42.2667 116.775 42.2342 116.102 42.2216L115.882 42.2066L115.791 42.2877C115.986 42.5944 116.859 42.6495 117.23 43.0819C117.14 43.274 117.158 43.219 116.914 43.3285C115.988 43.2847 115.548 42.007 114.849 42.2259C114.729 42.4216 114.526 43.3335 114.408 43.6846C115.386 43.711 116.423 43.5334 117.405 43.5174C117.623 43.5137 117.722 43.643 117.845 43.7776C117.829 43.8484 117.823 43.961 117.773 43.9736C117.001 44.1701 114.297 44.3054 113.611 44.222C113.634 43.711 114.238 41.7856 114.388 41.0858C113.94 41.0944 113.241 41.2399 113.034 40.816C113.228 40.208 114.284 40.7516 114.75 40.4771C114.75 40.3912 114.76 40.0561 114.814 40.0264C116.089 39.3379 116.56 39.7744 117.383 38.3699ZM118.102 40.5246C118.568 40.5415 119.366 40.6111 119.788 40.4851C119.579 40.1237 118.405 40.1256 118.12 39.701C118.036 39.5765 117.64 39.2659 117.489 39.2512C116.453 40.2959 115.995 39.9391 115.354 40.4435C115.613 40.6008 117.666 40.5284 118.102 40.5246Z" fill="black"/>
<path id="Vector_9" d="M93.6824 37.4348C93.7389 37.4299 93.8171 37.4712 93.8762 37.4946C94.0353 37.8915 93.6772 39.9982 93.532 40.4908C94.0249 40.5001 94.5109 40.4818 95.0039 40.4671C94.8743 41.6962 94.8848 43.091 94.4283 44.1922C93.5789 44.3454 92.4756 44.456 91.6531 44.1482L91.6314 44.0146C92.0461 43.6888 93.3259 43.7063 93.8832 43.6676C94.0623 43.0466 94.2266 41.7898 94.3692 41.0767C92.8321 41.1305 91.2271 41.0991 89.6856 41.0864C89.4805 41.116 89.3848 41.1457 89.1892 41.0664C88.9718 40.7925 89.3153 38.6906 89.4457 38.511C89.7048 38.4281 89.743 38.4137 90.0004 38.5013C90.1386 38.7224 89.8352 40.1703 89.7917 40.5411C90.4707 40.4708 92.2078 40.5015 92.8999 40.5481C92.9277 39.7776 92.9964 38.8186 93.1468 38.0698C92.1635 38.0696 91.1845 38.075 90.2012 38.0904C89.6613 38.0989 88.9432 38.2333 88.6232 37.7191L88.6832 37.5728C89.0988 37.361 92.946 37.4435 93.6824 37.4348Z" fill="black"/>
<path id="Vector_10" d="M103.923 38.7201C104.132 38.719 104.358 38.6962 104.539 38.792C104.45 38.961 104.401 39.0244 104.414 39.2199C104.888 39.3931 105.686 39.1577 106.277 39.3013C106.429 39.5626 106.402 39.4493 106.403 39.7336C106.219 39.8908 105.676 39.8604 105.261 39.9972C105.027 40.2344 105.085 40.1214 105.032 40.4475C105.375 40.7485 106.459 40.787 106.777 41.0749C106.407 41.3144 105.502 41.2614 105.058 41.2437C105.126 41.9173 104.996 42.1865 105.335 42.8097L105.466 42.8435C105.747 42.6222 105.793 42.1394 106.103 41.7845L106.204 41.8346C106.387 42.2886 106.353 42.8994 106.356 43.3982C105.958 43.3845 105.505 43.3934 105.104 43.3925C104.463 43.3754 103.902 43.3653 103.259 43.3877C103.263 42.8781 103.11 41.9116 103.56 41.6957L103.737 41.7566C103.914 42.0975 103.718 42.2447 103.808 42.7162L103.946 42.7981C104.284 42.7926 104.357 42.8549 104.548 42.6835C104.676 42.3428 104.633 41.6766 104.627 41.2869C104.004 41.2903 103.723 41.2886 103.113 41.1887L102.988 41.0068L102.984 41.0077C103.372 40.8062 104.492 40.698 104.644 40.4221C104.583 40.0886 104.633 40.067 104.44 39.8418C103.851 39.9617 103.767 40.526 103.362 40.557C103.191 40.0376 103.728 39.652 103.923 38.7201Z" fill="black"/>
<path id="Vector_11" d="M103.961 36.9032C104.25 36.9262 104.434 36.9005 104.573 37.1653L104.41 37.539L104.477 37.6549C104.868 37.7485 107.006 37.6775 107.594 37.6729C107.579 39.767 107.549 42.1038 107.421 44.1894C106.843 44.3185 105.945 44.5475 105.471 44.1311C105.445 43.8626 105.414 43.96 105.578 43.7635L105.799 43.7579C106.138 43.7647 106.517 43.805 106.818 43.669C107.013 43.3384 106.983 39.1851 107.056 38.358C105.962 38.4126 105.026 38.3894 103.926 38.3636C103.796 38.6455 103.688 38.9451 103.455 39.1493C103.175 39.221 103.268 39.2397 103.074 39.1302C102.983 38.6523 103.724 37.6173 103.961 36.9032Z" fill="black"/>
<path id="Vector_12" d="M100.793 37.2967C101.515 37.4033 102.18 37.369 102.909 37.361C102.83 38.2737 102.416 39.187 102.366 39.8899C102.316 40.5783 104.019 43.1465 101.678 42.9464L101.577 42.7981C101.643 42.0256 103.022 42.621 101.678 39.9279L102.188 38.3955L102.237 38.0672L102.128 37.9334C101.831 37.8722 101.569 37.882 101.269 37.8814C101.277 39.6165 101.337 42.3907 101.219 44.1952C101.21 44.3277 101.089 44.3674 100.987 44.4146L100.841 44.3361C100.681 44.0295 100.691 37.8125 100.793 37.2967Z" fill="black"/>
<path id="Vector_13" d="M51.1868 40.094C52.4592 39.9091 69.8845 40.0236 70.4874 40.2125L70.4713 40.2984C70.0628 40.3891 69.4172 40.3661 68.9794 40.3661C67.0116 40.3726 50.0556 40.4101 49.8209 40.273C50.2011 40.0951 50.7489 40.1137 51.1868 40.094Z" fill="black"/>
<path id="Vector_14" d="M10.9024 12.7098L11.0931 12.7607C11.2377 13.2294 11.1967 13.5118 11.5099 13.7684L11.5836 13.9307C11.3701 14.2959 11.1751 14.1409 11.0522 14.3837L11.2097 14.4649C10.3788 14.7346 8.33238 13.9899 7.3056 13.7392C7.82995 13.7425 9.24327 13.0188 9.67607 12.8559C9.92751 12.7613 10.264 12.8957 10.9024 12.7098Z" fill="black"/>
<path id="Vector_15" d="M144.384 40.144C145.122 40.0811 145.599 40.0186 146.343 40.1284L146.389 40.1989C146.172 40.2523 145.951 40.2891 145.727 40.3091C144.749 40.403 143.39 40.3661 142.375 40.3664L136.895 40.3676L129.699 40.3668C129.211 40.3666 125.992 40.445 125.753 40.2522C126.008 40.0679 128.472 40.1408 128.988 40.1444C129.518 40.2331 131.652 40.264 132.125 40.1462C133.919 40.1284 135.713 40.1277 137.508 40.144C138.187 40.2565 143.87 40.2755 144.384 40.144Z" fill="black"/>
<path id="Vector_16" d="M116.36 36.9923C116.584 37.02 116.617 37.0229 116.805 37.1445C116.803 37.3297 116.791 37.3566 116.87 37.5184C117.683 37.8433 119.919 37.3796 120.244 37.8556C120.181 38.317 119.758 38.8418 119.304 38.966L119.181 38.8906C119.199 38.522 119.26 38.5428 119.492 38.209C119.02 38.1036 116.953 38.1466 116.356 38.1565C116.074 38.5202 115.768 39.0753 115.268 38.9529C115.17 38.5815 116.067 37.5137 116.36 36.9923Z" fill="black"/>
<path id="Vector_17" d="M87.8858 42.1858C88.8769 42.1815 92.5989 42.0999 93.4031 42.2214C93.5744 42.4523 93.5187 42.4253 93.5283 42.7666C92.3242 42.7613 89.0352 42.824 88.0101 42.7026C87.8327 42.515 87.8919 42.5204 87.8858 42.1858Z" fill="black"/>
<path id="Vector_18" d="M114.525 38.7367L114.786 38.7558C115.091 39.2129 113.793 39.9952 113.411 40.2464C113.314 40.1869 113.201 40.0738 113.115 39.9939L113.121 39.8254C113.381 39.4769 114.134 39.0121 114.525 38.7367Z" fill="black"/>
<path id="Vector_19" d="M113.478 37.0998C113.867 37.1514 114.583 37.5524 114.811 37.8804C114.915 38.0297 114.793 38.2235 114.735 38.3874C114.379 38.2999 113.55 37.7322 113.382 37.3794C113.358 37.3305 113.451 37.161 113.478 37.0998Z" fill="black"/>
<path id="Vector_20" d="M10.9024 12.7097C11.3067 12.6355 11.1108 12.6818 11.4949 12.8638C11.5251 12.8781 11.8643 12.747 12.0359 12.8132C11.989 13.2796 11.5923 12.9676 11.7283 13.6237L11.5099 13.7684C11.1967 13.5118 11.2377 13.2294 11.0931 12.7607L10.9024 12.7097Z" fill="black"/>
<path id="Vector_21" d="M137.508 40.144C139.603 40.0822 142.281 40.0905 144.384 40.144C143.869 40.2755 138.187 40.2565 137.508 40.144Z" fill="black"/>
<path id="Vector_22" d="M128.988 40.1445C129.904 40.1169 131.219 40.0862 132.125 40.1462C131.652 40.264 129.518 40.2332 128.988 40.1445Z" fill="black"/>
</g>
<defs>
<clipPath id="clip0_0_73">
<rect width="152" height="48" fill="white"/>
</clipPath>
</defs>
</svg>
